<?xml version="1.0" encoding="UTF-8" standalone="no"?>
<!-- Created with Inkscape (http://www.inkscape.org/) -->

<svg
   xmlns:dc="http://purl.org/dc/elements/1.1/"
   xmlns:cc="http://creativecommons.org/ns#"
   xmlns:rdf="http://www.w3.org/1999/02/22-rdf-syntax-ns#"
   xmlns:svg="http://www.w3.org/2000/svg"
   xmlns="http://www.w3.org/2000/svg"
   xmlns:sodipodi="http://sodipodi.sourceforge.net/DTD/sodipodi-0.dtd"
   xmlns:inkscape="http://www.inkscape.org/namespaces/inkscape"
   width="512"
   height="512"
   viewBox="0 0 135.46666 135.46667"
   version="1.1"
   id="svg8"
   inkscape:version="0.92.2 5c3e80d, 2017-08-06"
   sodipodi:docname="logo.svg"
   inkscape:export-filename="/Users/paulhayes/Workspace/lockkeeper/build/icon.png"
   inkscape:export-xdpi="96"
   inkscape:export-ydpi="96">
  <defs
     id="defs2" />
  <sodipodi:namedview
     id="base"
     pagecolor="#ffffff"
     bordercolor="#666666"
     borderopacity="1.0"
     inkscape:pageopacity="0.0"
     inkscape:pageshadow="2"
     inkscape:zoom="1.4"
     inkscape:cx="253.16739"
     inkscape:cy="240.59472"
     inkscape:document-units="px"
     inkscape:current-layer="layer1"
     showgrid="false"
     units="px"
     inkscape:snap-bbox="true"
     inkscape:snap-bbox-midpoints="true"
     inkscape:snap-object-midpoints="true"
     inkscape:window-width="1680"
     inkscape:window-height="1006"
     inkscape:window-x="7"
     inkscape:window-y="48"
     inkscape:window-maximized="0" />
  <metadata
     id="metadata5">
    <rdf:RDF>
      <cc:Work
         rdf:about="">
        <dc:format>image/svg+xml</dc:format>
        <dc:type
           rdf:resource="http://purl.org/dc/dcmitype/StillImage" />
        <dc:title></dc:title>
      </cc:Work>
    </rdf:RDF>
  </metadata>
  <g
     inkscape:label="Layer 1"
     inkscape:groupmode="layer"
     id="layer1"
     transform="translate(0,-161.53332)">
    <circle
       style="opacity:0.95999995;fill:#b2cad5;fill-opacity:1;stroke:none;stroke-width:0.35881504;stroke-miterlimit:4;stroke-dasharray:none;stroke-dashoffset:0;stroke-opacity:1"
       id="path5769"
       cx="68.207809"
       cy="229.93037"
       r="58.544163" />
    <g
       id="g5778"
       transform="matrix(1.0884799,0,0,1.0884799,-5.9501735,-24.382953)">
      <path
         inkscape:connector-curvature="0"
         id="path5629"
         d="m 126.52316,200.71491 c -0.12224,0 -2.20199,0.49913 -4.62188,1.10893 -2.4199,0.6098 -4.60127,1.15498 -4.84749,1.21164 -0.24623,0.0567 -0.74072,0.18011 -1.09885,0.27412 -0.78715,0.20665 -2.45971,0.60236 -3.29659,0.77993 -0.17104,0.0363 -0.62254,0.14172 -1.25734,0.29271 v 5.53211 c 2.18484,-0.5933 4.1476,-1.12815 4.8794,-1.33319 0.71629,-0.2007 2.41951,-0.66448 3.78492,-1.03066 1.3654,-0.36619 2.72075,-0.73229 3.01174,-0.81361 0.291,-0.0813 1.51798,-0.41034 2.7267,-0.73119 1.20871,-0.32082 2.44378,-0.65481 2.74464,-0.74211 l 0.54691,-0.15869 0.15804,-0.5115 c 0.20398,-0.6604 0.36114,-1.98179 0.29115,-2.44844 -0.0938,-0.62522 -0.0944,-0.62558 -1.84556,-1.14631 -0.52444,-0.15594 -1.05356,-0.28374 -1.17579,-0.28374 z"
         style="fill:#43e12e;stroke-width:0.08139545" />
      <path
         inkscape:connector-curvature="0"
         id="path5627"
         d="m 8.7654052,200.71491 c -0.19617,0 -1.8188153,0.44986 -2.4342333,0.67481 -0.5499047,0.201 -0.5869044,0.28209 -0.575551,1.26126 0.00943,0.81397 0.1565435,1.7121 0.365705,2.23205 0.1050132,0.26104 -0.053433,0.20677 2.9205985,1.00113 1.2758736,0.34081 2.6312256,0.70495 3.0117476,0.80923 0.380526,0.10431 1.808975,0.48955 3.174382,0.85624 1.36541,0.36666 3.068632,0.83083 3.78491,1.03153 0.804834,0.2255 3.07048,0.84246 5.536698,1.51156 v -5.55245 c -1.126775,-0.2701 -2.11288,-0.50478 -2.606479,-0.61707 -2.165126,-0.49255 -2.658289,-0.61304 -7.913006,-1.93454 -2.785255,-0.70047 -5.1543598,-1.27375 -5.2647718,-1.27375 z"
         style="fill:#e1432e;stroke-width:0.08139545" />
      <path
         inkscape:connector-curvature="0"
         id="path5623"
         d="m 128.96459,201.55388 c -0.0452,0.002 -0.10023,0.0104 -0.17049,0.0229 -0.16737,0.0301 -0.34163,0.0841 -0.38713,0.1198 -0.0455,0.0357 -0.42992,0.12429 -0.85448,0.19695 -0.78787,0.13482 -1.44367,0.30157 -1.95223,0.4962 -0.15668,0.0599 -0.61463,0.16992 -1.01752,0.24439 -1.10909,0.20495 -3.02258,0.67029 -3.36172,0.81753 -0.52017,0.22582 -2.45909,0.73584 -4.73709,1.24619 l -0.77318,0.17335 -0.69183,-0.17575 c -0.38052,-0.0967 -0.90395,-0.17709 -1.16314,-0.17881 -0.27664,-0.002 -0.42797,-0.0307 -0.36634,-0.0696 0.0785,-0.0498 0.0705,-0.0671 -0.0317,-0.068 -0.0751,-8.5e-4 -0.19383,-0.0586 -0.26384,-0.12854 -0.07,-0.07 -0.16421,-0.10422 -0.20942,-0.0764 -0.0452,0.0279 -0.28971,0.0677 -0.54341,0.0887 -0.11502,0.009 -0.76657,0.15403 -1.67331,0.36549 v 5.37494 c 2.32686,-0.63121 4.31053,-1.17325 4.45467,-1.22564 0.22384,-0.0814 0.9746,-0.29973 1.6685,-0.48526 0.69389,-0.18556 1.52769,-0.41062 1.85301,-0.50036 0.5086,-0.14032 3.11422,-0.84309 5.59462,-1.50894 0.4029,-0.10816 1.44693,-0.38522 2.31988,-0.61555 2.3089,-0.60922 2.27244,-0.59865 2.34682,-0.6831 0.143,-0.16238 0.362,-1.33129 0.39586,-2.11247 0.0312,-0.72016 0.0158,-0.84486 -0.13377,-1.08203 -0.11707,-0.18559 -0.16671,-0.24122 -0.30276,-0.23608 z m -14.52231,3.07822 c 0.0282,8.6e-4 0.0526,0.008 0.0663,0.0221 0.027,0.027 -0.0211,0.0463 -0.10689,0.0428 -0.0948,-0.003 -0.11411,-0.0232 -0.0493,-0.0493 0.0293,-0.0118 0.0616,-0.0169 0.0898,-0.0157 z"
         style="fill:#2bc917;stroke-width:0.08139545" />
      <path
         inkscape:connector-curvature="0"
         id="path5621"
         d="m 6.292264,201.59215 c -0.2894042,-0.002 -0.3340855,0.11647 -0.3864695,0.35498 -0.1326999,0.60418 -0.01392,1.85559 0.2555344,2.69084 0.1438702,0.44601 -0.2094103,0.31165 3.2469516,1.23593 1.2534885,0.3352 3.0482985,0.81568 3.9884165,1.06783 0.940117,0.25211 2.734711,0.73197 3.988199,1.06627 1.25349,0.33431 2.462212,0.67822 2.68605,0.7642 0.183591,0.0705 3.317365,0.92728 6.694796,1.83989 V 205.172 c -2.003129,-0.48984 -3.681872,-0.89631 -3.852452,-0.92791 -0.465261,-0.0862 -1.04484,0.0104 -0.842671,0.13989 0.07744,0.0498 0.02077,0.059 -0.168096,0.0275 -0.225068,-0.0375 -0.259306,-0.0278 -0.16285,0.0461 0.09992,0.0766 0.08912,0.0843 -0.0599,0.0424 -0.215561,-0.0607 -0.970063,0.0387 -0.851631,0.11213 0.0449,0.0278 -0.0927,0.053 -0.305808,0.0561 -0.21312,0.002 -0.499758,0.0523 -0.636974,0.10908 -0.263089,0.10897 -0.167089,0.12425 -2.581785,-0.41247 -0.871693,-0.19377 -2.623344,-0.68048 -3.040603,-0.84486 -0.42495,-0.16742 -2.762732,-0.77032 -2.987049,-0.77032 -0.210722,0 -1.244004,-0.24688 -1.8676463,-0.44636 -0.2238345,-0.0716 -0.7916486,-0.22277 -1.2617082,-0.33598 -1.0308294,-0.24828 -1.564905,-0.37271 -1.8543083,-0.37533 z"
         style="fill:#c82a16;stroke-width:0.08139545" />
      <path
         inkscape:connector-curvature="0"
         id="path5619"
         d="m 61.175749,265.79752 c -0.929551,-0.23158 -2.587842,-0.94828 -3.296519,-1.42471 -0.201454,-0.13544 -0.513375,-0.4376 -0.693157,-0.67144 -0.25098,-0.32647 -0.43053,-0.46628 -0.773256,-0.60209 -1.277732,-0.5064 -5.160964,-2.08863 -5.655688,-2.30442 -0.313371,-0.1367 -1.009303,-0.42973 -1.546514,-0.65117 -0.537211,-0.22147 -1.337978,-0.57199 -1.779488,-0.77892 -0.44151,-0.20692 -1.027556,-0.4708 -1.302328,-0.58638 -0.442243,-0.18603 -0.912069,-0.42257 -2.113799,-1.06424 -0.186602,-0.0996 -0.517121,-0.23615 -0.734494,-0.30338 -0.21737,-0.0673 -0.583646,-0.21224 -0.813952,-0.32222 -1.203131,-0.57453 -2.898777,-1.33705 -3.177568,-1.42893 -0.254899,-0.0841 -0.399493,-0.0846 -0.738409,-0.003 -0.408069,0.0978 -0.441935,0.092 -1.06676,-0.18587 -1.542102,-0.68578 -2.070635,-0.96014 -2.18441,-1.13393 -0.106608,-0.16284 -0.122903,-2.61066 -0.134146,-20.15515 -0.0071,-11.01179 0.01849,-19.99668 0.05697,-20.02972 0.03836,-0.0329 0.245611,-0.20034 0.460528,-0.37192 0.305639,-0.24402 0.38543,-0.35604 0.36628,-0.51429 -0.02254,-0.1862 -0.09899,-0.22098 -0.960527,-0.43683 -1.54478,-0.38706 -14.596832,-3.89212 -14.782259,-3.96969 -0.124071,-0.052 -0.184978,-0.16987 -0.219326,-0.42473 -0.402141,-2.98413 -0.424413,-3.26991 -0.26706,-3.42725 0.06767,-0.0677 0.408258,-0.18251 0.756873,-0.25519 0.348616,-0.0727 0.926869,-0.20873 1.285011,-0.30235 0.358141,-0.0936 0.826119,-0.16655 1.039958,-0.16213 0.213839,0.004 2.832737,0.61413 5.819777,1.35487 2.987036,0.74075 5.54086,1.33621 5.675163,1.32324 l 0.244186,-0.0236 0.0407,-1.30232 c 0.02237,-0.71628 0.02106,-1.41221 -0.0029,-1.54651 -0.04539,-0.25398 -0.05418,-0.25784 -1.119719,-0.49278 -0.213593,-0.047 -0.331268,-0.26817 -0.189412,-0.35585 0.05246,-0.0325 0.294248,-0.0229 0.537331,0.0213 0.571692,0.10367 0.693359,0.0129 0.693359,-0.51709 0,-0.34249 0.03392,-0.41838 0.285982,-0.63968 0.831677,-0.73022 2.090618,-0.85655 3.502402,-0.35142 1.15179,0.4121 1.244278,0.53101 1.336535,1.71845 0.0491,0.63193 0.089,0.79036 0.227219,0.9023 0.190147,0.15395 4.287925,1.00221 4.643389,0.96118 0.212007,-0.0245 0.221179,-0.0464 0.26525,-0.63581 0.02513,-0.33576 0.07541,-0.67613 0.111782,-0.75638 0.129021,-0.28465 0.692494,-0.49141 1.442917,-0.52943 0.861986,-0.0437 1.584778,0.0747 2.345002,0.38404 1.105219,0.44979 1.280798,0.69713 1.362351,1.91922 0.0239,0.35812 0.07688,0.69302 0.117722,0.74422 0.04086,0.0512 0.320266,0.13843 0.620934,0.19394 0.64955,0.11989 0.831559,0.20276 0.831559,0.37862 0,0.11282 -0.06993,0.12228 -0.508722,0.0688 -0.909534,-0.11104 -0.89481,-0.11408 -0.979468,0.20171 -0.04916,0.18341 -0.04394,0.64738 0.01463,1.30233 0.05006,0.55959 0.09075,1.3182 0.09042,1.68579 -4.24e-4,0.55532 0.02588,0.69296 0.156027,0.81395 0.102854,0.0957 1.437138,0.4642 3.886634,1.07363 5.276815,1.31283 5.663694,1.43294 6.551833,2.03378 0.46448,0.31422 0.722561,0.5976 0.921769,1.01215 l 0.163395,0.34001 h 0.768964 0.768964 l 0.187435,0.27657 0.187431,0.27658 -4.24e-4,24.14206 c -3.38e-4,17.20488 -0.02602,24.23562 -0.08939,24.46765 -0.120153,0.43986 -0.423436,0.82252 -0.806983,1.0182 -0.370251,0.18888 -1.17681,0.2095 -1.829923,0.0469 z m -4.940706,-45.07551 c 0.06524,-0.0653 0.09767,-0.42589 0.09767,-1.08624 0,-0.85946 -0.01972,-1.00637 -0.151011,-1.1252 -0.08305,-0.0752 -0.806461,-0.31557 -1.60756,-0.53426 -0.801103,-0.21866 -1.709427,-0.49429 -2.018501,-0.61252 -0.654592,-0.25038 -0.860521,-0.2427 -1.001672,0.0373 -0.147136,0.29186 -0.142086,1.90276 0.0064,2.02596 0.06123,0.0509 0.491611,0.20547 0.956399,0.34368 0.464783,0.13822 1.009891,0.31789 1.211345,0.39927 0.562116,0.22709 1.969051,0.63905 2.201745,0.64467 0.114157,0.002 0.251511,-0.0389 0.305232,-0.0926 z m -10.500011,-2.93024 c 0.06179,-0.0618 0.09767,-0.37241 0.09767,-0.84563 0,-1.11535 0.172586,-1.00501 -2.726746,-1.74334 -0.671511,-0.17101 -1.342069,-0.34876 -1.490132,-0.395 -0.516276,-0.16126 -0.607825,-0.006 -0.569057,0.96632 l 0.02433,0.60952 0.472528,0.23618 c 0.652092,0.32592 3.451236,1.25521 3.804801,1.26315 0.158925,0.003 0.332905,-0.0375 0.386625,-0.0913 z m -0.859029,-8.28127 c 0.0843,-0.12034 0.09607,-0.30949 0.04941,-0.7936 -0.0337,-0.34959 -0.0799,-1.10842 -0.102668,-1.6863 -0.02275,-0.57786 -0.07693,-1.08619 -0.120355,-1.12962 -0.09159,-0.0917 -4.320196,-0.95341 -4.67799,-0.95341 h -0.240074 l 0.05548,1.49013 c 0.05514,1.48079 0.135603,2.03333 0.311967,2.14232 0.161126,0.0996 4.082657,1.07337 4.353635,1.08109 0.171065,0.006 0.297754,-0.0466 0.37059,-0.15061 z m 27.394245,56.24176 c -0.372104,-0.20343 -0.672549,-0.59148 -0.78953,-1.01972 -0.06338,-0.23204 -0.08907,-7.26278 -0.08939,-24.46765 l -4.25e-4,-24.14206 0.187433,-0.27658 0.187435,-0.27658 h 0.768963 0.768962 l 0.163398,-0.34001 c 0.199207,-0.41455 0.457289,-0.69793 0.921766,-1.01216 0.888141,-0.60083 1.27502,-0.72093 6.551834,-2.03377 2.449495,-0.60943 3.78378,-0.978 3.886629,-1.07363 0.130136,-0.12099 0.156523,-0.25863 0.156031,-0.81395 -3.34e-4,-0.36758 0.04036,-1.12619 0.09042,-1.68577 0.05859,-0.65498 0.0638,-1.11896 0.01463,-1.30234 -0.08466,-0.31581 -0.06993,-0.31277 -0.979464,-0.20171 -0.438786,0.0535 -0.508721,0.0441 -0.508721,-0.0687 0,-0.17586 0.182009,-0.25873 0.831554,-0.37862 0.300669,-0.0554 0.58009,-0.14279 0.620934,-0.19396 0.04086,-0.0512 0.09382,-0.38608 0.117721,-0.74422 0.08156,-1.22208 0.257134,-1.46942 1.362352,-1.91918 0.760228,-0.30937 1.48302,-0.42776 2.345004,-0.38409 0.750428,0.038 1.313892,0.2448 1.442919,0.52946 0.03635,0.0802 0.08666,0.42062 0.111777,0.75637 0.04412,0.58937 0.05328,0.61134 0.26525,0.63582 0.355467,0.0411 4.45325,-0.80723 4.643396,-0.9612 0.138221,-0.11193 0.178122,-0.27036 0.227217,-0.90228 0.09221,-1.18744 0.184745,-1.30635 1.336535,-1.71844 1.411784,-0.50514 2.670726,-0.37882 3.502412,0.3514 0.25204,0.22129 0.28598,0.2972 0.28598,0.63968 0,0.52999 0.12166,0.62074 0.69336,0.5171 0.24308,-0.044 0.48489,-0.0535 0.53732,-0.0213 0.14186,0.0877 0.0242,0.30874 -0.18941,0.35585 -1.06552,0.23492 -1.07431,0.23881 -1.1197,0.49275 -0.0241,0.1343 -0.0253,0.83025 -0.002,1.54652 l 0.0407,1.30234 0.24418,0.0236 c 0.1343,0.013 2.67994,-0.57825 5.65697,-1.31378 2.97705,-0.73555 5.5645,-1.35949 5.74987,-1.3865 0.21813,-0.0318 0.44028,-0.006 0.62952,0.073 0.16082,0.0672 0.68675,0.19688 1.16873,0.28817 1.10015,0.20838 1.37845,0.29652 1.4396,0.45585 0.0514,0.13383 -0.0627,1.49777 -0.19995,2.3887 -0.0448,0.291 -0.10455,0.70634 -0.13283,0.92301 -0.0384,0.2943 -0.0946,0.412 -0.22235,0.46542 -0.18493,0.0774 -13.24177,3.58353 -14.78143,3.9693 -0.861544,0.21585 -0.937998,0.25063 -0.960529,0.43684 -0.01915,0.15824 0.06058,0.27028 0.366279,0.51429 0.214916,0.17158 0.42214,0.33895 0.46052,0.37191 0.0385,0.033 0.064,9.01794 0.0571,20.02973 -0.0112,17.54449 -0.0275,19.9923 -0.134153,20.15516 -0.113766,0.17378 -0.642304,0.44814 -2.184413,1.13392 -0.624811,0.27786 -0.658664,0.28376 -1.06674,0.18586 -0.33893,-0.0813 -0.483514,-0.0806 -0.738414,0.003 -0.278809,0.0918 -1.974455,0.8544 -3.177579,1.42894 -0.230303,0.10999 -0.596582,0.25497 -0.813958,0.32221 -0.217367,0.0673 -0.547889,0.20376 -0.734492,0.3034 -1.201727,0.64166 -1.671561,0.87821 -2.113795,1.06422 -0.274768,0.11558 -0.860818,0.37946 -1.302322,0.58639 -0.441516,0.20694 -1.242286,0.55744 -1.779495,0.7789 -0.537211,0.22147 -1.233143,0.51449 -1.546513,0.65119 -0.49472,0.21579 -4.377952,1.79801 -5.655686,2.3044 -0.342727,0.13584 -0.522277,0.27565 -0.773257,0.60211 -0.385529,0.50147 -0.796123,0.79136 -1.791997,1.26519 -1.268568,0.60358 -2.184173,0.88285 -3.011633,0.91855 -0.620126,0.0268 -0.778735,0.006 -1.033422,-0.13286 z m 8.082313,-45.1836 c 0.465559,-0.13805 1.011292,-0.31753 1.212745,-0.39882 0.201455,-0.0814 0.746558,-0.26091 1.211343,-0.39912 0.464786,-0.13822 0.895163,-0.29287 0.956397,-0.34369 0.14844,-0.1232 0.153486,-1.7341 0.0064,-2.02595 -0.14115,-0.27999 -0.34708,-0.28767 -1.001673,-0.0373 -0.309072,0.11821 -1.217398,0.39385 -2.018496,0.61252 -0.801103,0.21867 -1.524506,0.45908 -1.607561,0.53425 -0.131295,0.11881 -0.151016,0.26573 -0.151016,1.12521 0,1.04067 0.04481,1.1839 0.3704,1.1839 0.09628,0 0.555962,-0.11296 1.021516,-0.25102 z m 11.302705,-3.17428 c 0.829889,-0.27229 1.746968,-0.6111 2.037958,-0.75291 l 0.529076,-0.25783 0.02423,-0.60952 c 0.03875,-0.97212 -0.05272,-1.12758 -0.56906,-0.96632 -0.148062,0.0462 -0.818623,0.22399 -1.490125,0.395 -2.899334,0.73833 -2.726752,0.62799 -2.726752,1.74334 0,0.47322 0.03589,0.78383 0.09767,0.84563 0.177632,0.17765 0.572242,0.10283 2.096925,-0.39739 z m 1.246861,-8.21552 c 1.084224,-0.2693 2.051529,-0.5239 2.149552,-0.56577 0.265768,-0.11355 0.340086,-0.51584 0.401889,-2.17539 l 0.0554,-1.49013 h -0.240073 c -0.357789,0 -4.586402,0.86183 -4.677989,0.95341 -0.04338,0.0434 -0.09758,0.55176 -0.120351,1.12962 -0.02275,0.57788 -0.069,1.33671 -0.102676,1.6863 -0.06928,0.71905 0.01905,0.95161 0.361461,0.95161 0.11076,0 1.088488,-0.22034 2.172719,-0.48965 z"
         style="fill:#151515;stroke-width:0.08139545" />
    </g>
  </g>
</svg>
